<?xml version="1.0" encoding="UTF-8" standalone="yes"?>
<svg xmlns="http://www.w3.org/2000/svg" xmlns:xlink="http://www.w3.org/1999/xlink" viewBox="0 0 50 50" version="1.1" width="50" height="50" fill="#000000">
  <g id="surface1">
    <path style=" " d="M 25 0 C 21.15625 0 18 3.15625 18 7 L 12.8125 7 L 12.71875 7.875 L 10 31.875 L 9.875 33 L 40.125 33 L 40 31.875 L 37.28125 7.875 L 37.1875 7 L 32 7 C 32 3.15625 28.84375 0 25 0 Z M 25 2 C 27.753906 2 30 4.246094 30 7 L 20 7 C 20 4.246094 22.246094 2 25 2 Z M 14.59375 9 L 18 9 L 18 10.28125 C 17.402344 10.628906 17 11.261719 17 12 C 17 13.105469 17.894531 14 19 14 C 20.105469 14 21 13.105469 21 12 C 21 11.261719 20.597656 10.628906 20 10.28125 L 20 9 L 30 9 L 30 10.28125 C 29.402344 10.628906 29 11.261719 29 12 C 29 13.105469 29.894531 14 31 14 C 32.105469 14 33 13.105469 33 12 C 33 11.261719 32.597656 10.628906 32 10.28125 L 32 9 L 35.40625 9 L 37.875 31 L 12.125 31 Z M 7.84375 26.78125 C 7.757813 26.800781 7.671875 26.832031 7.59375 26.875 L 0.84375 30 C 0.8125 30.007813 0.78125 30.019531 0.75 30.03125 L 0.65625 30.0625 C 0.554688 30.089844 0.460938 30.132813 0.375 30.1875 C 0.355469 30.195313 0.332031 30.207031 0.3125 30.21875 C 0.3125 30.230469 0.3125 30.238281 0.3125 30.25 C -0.0664063 30.53125 -0.195313 31.039063 0 31.46875 L 0 35 C -0.00390625 35.359375 0.1875 35.695313 0.5 35.875 L 24.5 49.875 C 24.808594 50.054688 25.191406 50.054688 25.5 49.875 L 49.5 35.875 C 49.8125 35.695313 50.003906 35.359375 50 35 L 50 31.5 C 50.21875 31.039063 50.058594 30.488281 49.625 30.21875 C 49.558594 30.167969 49.484375 30.125 49.40625 30.09375 L 49.375 30.0625 C 49.316406 30.035156 49.25 30.015625 49.1875 30 L 42.40625 26.875 C 42.261719 26.804688 42.097656 26.773438 41.9375 26.78125 C 41.453125 26.785156 41.042969 27.132813 40.957031 27.605469 C 40.875 28.082031 41.140625 28.550781 41.59375 28.71875 L 46.8125 31.09375 L 25 43.84375 L 3.1875 31.09375 L 8.40625 28.71875 C 8.898438 28.554688 9.1875 28.039063 9.0625 27.535156 C 8.941406 27.027344 8.453125 26.699219 7.9375 26.78125 C 7.90625 26.78125 7.875 26.78125 7.84375 26.78125 Z M 2 32.75 L 24.5 45.875 C 24.808594 46.054688 25.191406 46.054688 25.5 45.875 L 48 32.75 L 48 34.40625 L 25 47.84375 L 2 34.40625 Z "/>
  </g>
</svg>
